HIERARCHY
ROOT reference
{
  OFFSET -65.3212 -1.93545 -120.338
  CHANNELS 6 Xposition Yposition Zposition Zrotation Xrotation Yrotation
  JOINT Hips
  {
    OFFSET 0 78.7191 0
    CHANNELS 6 Xposition Yposition Zposition Zrotation Xrotation Yrotation
    JOINT Chest
    {
      OFFSET 0 8.7983 -4.7612
      CHANNELS 6 Xposition Yposition Zposition Zrotation Xrotation Yrotation
      JOINT Chest2
      {
        OFFSET 0 8.0291 0.4195
        CHANNELS 6 Xposition Yposition Zposition Zrotation Xrotation Yrotation
        JOINT Chest3
        {
          OFFSET 0 9.9351 -2.2114
          CHANNELS 6 Xposition Yposition Zposition Zrotation Xrotation Yrotation
          JOINT Neck
          {
            OFFSET 0 22.3885 -0.4656
            CHANNELS 6 Xposition Yposition Zposition Zrotation Xrotation Yrotation
            JOINT Head
            {
              OFFSET -0.0001 12.643 3.4389
              CHANNELS 6 Xposition Yposition Zposition Zrotation Xrotation Yrotation
              End Site
              {
                OFFSET 0.0001 17.6655 0.5274
              }
            }
          }
          JOINT LeftCollar
          {
            OFFSET 2.2603 21.606 7.4023
            CHANNELS 6 Xposition Yposition Zposition Zrotation Xrotation Yrotation
            JOINT LeftShoulder
            {
              OFFSET 13.5163 -1.1332 -5.0146
              CHANNELS 6 Xposition Yposition Zposition Zrotation Xrotation Yrotation
              JOINT LeftElbow
              {
                OFFSET -0.0995 -28.05 -0.2431
                CHANNELS 6 Xposition Yposition Zposition Zrotation Xrotation Yrotation
                JOINT LeftWrist
                {
                  OFFSET 0.0679 -23.3996 -0.1402
                  CHANNELS 6 Xposition Yposition Zposition Zrotation Xrotation Yrotation
                  JOINT LeftFinger1
                  {
                    OFFSET 0.7932 -9.069 2.5189
                    CHANNELS 6 Xposition Yposition Zposition Zrotation Xrotation Yrotation
                    JOINT LeftFinger11
                    {
                      OFFSET -0.8272 -3.3923 0.5977
                      CHANNELS 6 Xposition Yposition Zposition Zrotation Xrotation Yrotation
                      JOINT LeftFinger12
                      {
                        OFFSET -0.5649 -2.3158 0.4082
                        CHANNELS 6 Xposition Yposition Zposition Zrotation Xrotation Yrotation
                        End Site
                        {
                          OFFSET -0.4919 -1.6479 0.2673
                        }
                      }
                    }
                  }
                  JOINT LeftFinger2
                  {
                    OFFSET 0.9159 -9.2044 0.2193
                    CHANNELS 6 Xposition Yposition Zposition Zrotation Xrotation Yrotation
                    JOINT LeftFinger21
                    {
                      OFFSET 0.0117 -4.1944 -0.0248
                      CHANNELS 6 Xposition Yposition Zposition Zrotation Xrotation Yrotation
                      JOINT LeftFinger22
                      {
                        OFFSET 0.0071 -2.3249 -0.0142
                        CHANNELS 6 Xposition Yposition Zposition Zrotation Xrotation Yrotation
                        End Site
                        {
                          OFFSET -0.1475 -2.0882 0.0028
                        }
                      }
                    }
                  }
                  JOINT LeftFinger3
                  {
                    OFFSET 0.6113 -8.7231 -2.0637
                    CHANNELS 6 Xposition Yposition Zposition Zrotation Xrotation Yrotation
                    JOINT LeftFinger31
                    {
                      OFFSET -0.1927 -3.8059 -0.2383
                      CHANNELS 6 Xposition Yposition Zposition Zrotation Xrotation Yrotation
                      JOINT LeftFinger32
                      {
                        OFFSET -0.1091 -2.1688 -0.1362
                        CHANNELS 6 Xposition Yposition Zposition Zrotation Xrotation Yrotation
                        End Site
                        {
                          OFFSET -0.2358 -1.9176 -0.0906
                        }
                      }
                    }
                  }
                  JOINT LeftFinger4
                  {
                    OFFSET -0.6151 -8.0947 -3.5641
                    CHANNELS 6 Xposition Yposition Zposition Zrotation Xrotation Yrotation
                    JOINT LeftFinger41
                    {
                      OFFSET -0.4882 -2.341 -0.6462
                      CHANNELS 6 Xposition Yposition Zposition Zrotation Xrotation Yrotation
                      JOINT LeftFinger42
                      {
                        OFFSET -0.3575 -1.7167 -0.4742
                        CHANNELS 6 Xposition Yposition Zposition Zrotation Xrotation Yrotation
                        End Site
                        {
                          OFFSET -0.4187 -1.5237 -0.3496
                        }
                      }
                    }
                  }
                  JOINT LeftFinger0
                  {
                    OFFSET -1.42 -1.8761 1.4223
                    CHANNELS 6 Xposition Yposition Zposition Zrotation Xrotation Yrotation
                    JOINT LeftFinger01
                    {
                      OFFSET -1.1471 -3.4929 2.6334
                      CHANNELS 6 Xposition Yposition Zposition Zrotation Xrotation Yrotation
                      JOINT LeftFinger02
                      {
                        OFFSET -0.823 -2.3 1.6571
                        CHANNELS 6 Xposition Yposition Zposition Zrotation Xrotation Yrotation
                        End Site
                        {
                          OFFSET -0.5822 -1.6914 1.1582
                        }
                      }
                    }
                  }
                }
              }
            }
          }
          JOINT RightCollar
          {
            OFFSET -2.2603 21.606 7.4023
            CHANNELS 6 Xposition Yposition Zposition Zrotation Xrotation Yrotation
            JOINT RightShoulder
            {
              OFFSET -13.5187 -1.1334 -5.0155
              CHANNELS 6 Xposition Yposition Zposition Zrotation Xrotation Yrotation
              JOINT RightElbow
              {
                OFFSET 0.0994 -28.0499 -0.2431
                CHANNELS 6 Xposition Yposition Zposition Zrotation Xrotation Yrotation
                JOINT RightWrist
                {
                  OFFSET -0.0679 -23.3996 -0.1402
                  CHANNELS 6 Xposition Yposition Zposition Zrotation Xrotation Yrotation
                  JOINT RightFinger1
                  {
                    OFFSET -0.7932 -9.0691 2.5189
                    CHANNELS 6 Xposition Yposition Zposition Zrotation Xrotation Yrotation
                    JOINT RightFinger11
                    {
                      OFFSET 0.8272 -3.3923 0.5977
                      CHANNELS 6 Xposition Yposition Zposition Zrotation Xrotation Yrotation
                      JOINT RightFinger12
                      {
                        OFFSET 0.565 -2.3158 0.4082
                        CHANNELS 6 Xposition Yposition Zposition Zrotation Xrotation Yrotation
                        End Site
                        {
                          OFFSET 0.4919 -1.6479 0.2673
                        }
                      }
                    }
                  }
                  JOINT RightFinger2
                  {
                    OFFSET -0.916 -9.2044 0.2193
                    CHANNELS 6 Xposition Yposition Zposition Zrotation Xrotation Yrotation
                    JOINT RightFinger21
                    {
                      OFFSET -0.0117 -4.1944 -0.0248
                      CHANNELS 6 Xposition Yposition Zposition Zrotation Xrotation Yrotation
                      JOINT RightFinger22
                      {
                        OFFSET -0.0071 -2.3249 -0.0142
                        CHANNELS 6 Xposition Yposition Zposition Zrotation Xrotation Yrotation
                        End Site
                        {
                          OFFSET 0.1475 -2.0882 0.0028
                        }
                      }
                    }
                  }
                  JOINT RightFinger3
                  {
                    OFFSET -0.6113 -8.7231 -2.0637
                    CHANNELS 6 Xposition Yposition Zposition Zrotation Xrotation Yrotation
                    JOINT RightFinger31
                    {
                      OFFSET 0.1927 -3.8059 -0.2383
                      CHANNELS 6 Xposition Yposition Zposition Zrotation Xrotation Yrotation
                      JOINT RightFinger32
                      {
                        OFFSET 0.1091 -2.1688 -0.1362
                        CHANNELS 6 Xposition Yposition Zposition Zrotation Xrotation Yrotation
                        End Site
                        {
                          OFFSET 0.2358 -1.9176 -0.0906
                        }
                      }
                    }
                  }
                  JOINT RightFinger4
                  {
                    OFFSET 0.6151 -8.0947 -3.564
                    CHANNELS 6 Xposition Yposition Zposition Zrotation Xrotation Yrotation
                    JOINT RightFinger41
                    {
                      OFFSET 0.4882 -2.341 -0.6462
                      CHANNELS 6 Xposition Yposition Zposition Zrotation Xrotation Yrotation
                      JOINT RightFinger42
                      {
                        OFFSET 0.3574 -1.7166 -0.4742
                        CHANNELS 6 Xposition Yposition Zposition Zrotation Xrotation Yrotation
                        End Site
                        {
                          OFFSET 0.4187 -1.5237 -0.3496
                        }
                      }
                    }
                  }
                  JOINT RightFinger0
                  {
                    OFFSET 1.4199 -1.8761 1.4221
                    CHANNELS 6 Xposition Yposition Zposition Zrotation Xrotation Yrotation
                    JOINT RightFinger01
                    {
                      OFFSET 1.1472 -3.4929 2.6336
                      CHANNELS 6 Xposition Yposition Zposition Zrotation Xrotation Yrotation
                      JOINT RightFinger02
                      {
                        OFFSET 0.8229 -2.3 1.6571
                        CHANNELS 6 Xposition Yposition Zposition Zrotation Xrotation Yrotation
                        End Site
                        {
                          OFFSET 0.5822 -1.6914 1.1582
                        }
                      }
                    }
                  }
                }
              }
            }
          }
        }
      }
    }
    JOINT RightHip
    {
      OFFSET -9.412 3.9771 -0.7758
      CHANNELS 6 Xposition Yposition Zposition Zrotation Xrotation Yrotation
      JOINT RightKnee
      {
        OFFSET -0.7531 -40.938 0
        CHANNELS 6 Xposition Yposition Zposition Zrotation Xrotation Yrotation
        JOINT RightAnkle
        {
          OFFSET 0 -40.1986 0
          CHANNELS 6 Xposition Yposition Zposition Zrotation Xrotation Yrotation
          JOINT RightToe
          {
            OFFSET 0 -4.4182 9.239
            CHANNELS 6 Xposition Yposition Zposition Zrotation Xrotation Yrotation
            End Site
            {
              OFFSET 0 0 6.1981
            }
          }
        }
      }
    }
    JOINT LeftHip
    {
      OFFSET 9.4119 3.9773 -0.7758
      CHANNELS 6 Xposition Yposition Zposition Zrotation Xrotation Yrotation
      JOINT LeftKnee
      {
        OFFSET 0.7532 -40.9383 0
        CHANNELS 6 Xposition Yposition Zposition Zrotation Xrotation Yrotation
        JOINT LeftAnkle
        {
          OFFSET 0 -40.1986 0
          CHANNELS 6 Xposition Yposition Zposition Zrotation Xrotation Yrotation
          JOINT LeftToe
          {
            OFFSET 0 -4.4182 9.239
            CHANNELS 6 Xposition Yposition Zposition Zrotation Xrotation Yrotation
            End Site
            {
              OFFSET 0 0 6.1981
            }
          }
        }
      }
    }
  }
}
MOTION
Frames:	4
Frame Time:	0.0333333
-72.3492 -27.6974 -4.17064 0 0 -0 0 78.7191 0 -10.0535 -13.3581 108.715 0 8.7983 -4.7612 3.58318 -3.16921 -2.54093 0 8.0291 0.4195 7.03883 -6.48833 -4.88986 0 9.9351 -2.2114 7.03884 -6.48834 -4.88991 0 22.3885 -0.4656 0.0478543 9.37115 -2.64009 -0.0001 12.643 3.4389 4.7414 -3.45441 4.62002 2.2603 21.606 7.4023 22.847 -2.25139 -36.2645 13.5163 -1.1332 -5.0146 49.5219 -67.1431 30.9325 -0.0995 -28.05 -0.2431 -1.31567 -18.6465 18.3897 0.0679 -23.3996 -0.1402 41.1487 3.14367 66.0526 0.7932 -9.069 2.5189 -1.93113 5.32641 -2.50768 -0.8272 -3.3923 0.5977 -0.0200534 -0.33447 -0.117943 -0.5649 -2.3158 0.4082 -0.508144 0.31612 -0.025898 0.9159 -9.2044 0.2193 0.769179 0.382089 -2.16225 0.0117 -4.1944 -0.0248 -1.78631 1.12075 -0.158431 0.0071 -2.3249 -0.0142 1.09637 -0.684298 0.114328 0.6113 -8.7231 -2.0637 1.51743 -1.39015 0.607407 -0.1927 -3.8059 -0.2383 -1.54806 1.0674 -0.190695 -0.1091 -2.1688 -0.1362 1.26037 -0.863025 0.176128 -0.6151 -8.0947 -3.5641 2.47738 0.124741 -0.245933 -0.4882 -2.341 -0.6462 -0.0827371 0.0557571 -0.0137228 -0.3575 -1.7167 -0.4742 1.11386 -0.749739 0.191748 -1.42 -1.8761 1.4223 1.28174 4.63667 -1.23512 -1.1471 -3.4929 2.6334 -2.11394 -0.352837 0.304484 -0.823 -2.3 1.6571 1.09749 1.44764 -0.315676 -2.2603 21.606 7.4023 -5.35085 0.317787 2.2603 -13.5187 -1.1334 -5.0155 -91.3859 -75.5232 -61.7341 0.0994 -28.0499 -0.2431 -3.34107 -55.3592 -14.7974 -0.0679 -23.3996 -0.1402 -4.62316 -7.90306 -41.4801 -0.7932 -9.0691 2.5189 -26.3168 9.86705 9.08444 0.8272 -3.3923 0.5977 39.4242 12.0338 -4.97718 0.565 -2.3158 0.4082 38.7304 11.8651 -4.82259 -0.916 -9.2044 0.2193 -2.23349 10.2523 5.03865 -0.0117 -4.1944 -0.0248 52.3753 15.6205 -6.4019 -0.0071 -2.3249 -0.0142 44.0892 13.716 -4.48631 -0.6113 -8.7231 -2.0637 15.0073 7.58703 -5.70556 0.1927 -3.8059 -0.2383 37.2884 13.8497 -2.53179 0.1091 -2.1688 -0.1362 38.5715 14.2637 -2.77363 0.6151 -8.0947 -3.564 23.054 4.37551 -8.90252 0.4882 -2.341 -0.6462 30.7535 11.5467 -0.514414 0.3574 -1.7166 -0.4742 30.685 11.5224 -0.506217 1.4199 -1.8761 1.4221 7.91156 0.880246 52.6244 1.1472 -3.4929 2.6336 -0.671177 1.52914 0.489033 0.8229 -2.3 1.6571 -4.02433 8.62944 3.04555 -9.412 3.9771 -0.7758 -49.5936 -32.1468 -46.7695 -0.7531 -40.938 -3.55271e-015 67.827 73.9828 -60.957 0 -40.1986 0 22.2544 -30.0434 18.2951 0 -4.4182 9.239 -1.29381 -9.23761 0.425958 9.4119 3.9773 -0.7758 71.289 -68.1679 61.1174 0.7532 -40.9383 -7.10543e-015 -175.586 87.5952 173.612 7.10543e-015 -40.1986 7.10543e-015 -6.42482 -25.6744 -18.1363 7.10543e-015 -4.4182 9.239 1.2487 -9.25491 0.100976 
-73.0588 -27.9828 -7.3784 0 0 -0 0 78.7191 0 -12.0237 -8.42365 108.105 0 8.7983 -4.7612 2.97012 -3.30361 -2.40925 0 8.0291 0.4195 5.81332 -6.72509 -4.6555 0 9.9351 -2.2114 5.81333 -6.72512 -4.65552 0 22.3885 -0.4656 0.131595 8.90269 -1.23093 -0.0001 12.643 3.4389 0.880919 -3.81272 4.46639 2.2603 21.606 7.4023 23.7954 -2.24047 -36.0449 13.5163 -1.1332 -5.0146 41.4707 -68.6907 23.3668 -0.0995 -28.05 -0.2431 -0.656031 -19.6159 15.9697 0.0679 -23.3996 -0.1402 35.0314 5.5369 70.1147 0.7932 -9.069 2.5189 -3.0155 7.00949 -2.85237 -0.8272 -3.3923 0.5977 -0.244188 0.151986 -0.0128657 -0.5649 -2.3158 0.4082 -1.67374 1.04244 -0.0745869 0.9159 -9.2044 0.2193 -0.286647 1.1136 -2.45409 0.0117 -4.1944 -0.0248 -3.05097 1.91775 -0.24959 0.0071 -2.3249 -0.0142 0.0660597 -0.0414685 0.00648398 0.6113 -8.7231 -2.0637 0.55362 -0.761186 0.500581 -0.1927 -3.8059 -0.2383 -2.75838 1.90657 -0.319952 -0.1091 -2.1688 -0.1362 0.276815 -0.190004 0.0370685 -0.6151 -8.0947 -3.5641 1.06259 0.197067 -0.0225604 -0.4882 -2.341 -0.6462 -1.17626 0.797364 -0.18715 -0.3575 -1.7167 -0.4742 0.116256 -0.0783864 0.0193452 -1.42 -1.8761 1.4223 1.99787 5.79583 -1.52129 -1.1471 -3.4929 2.6334 -2.26664 -0.310782 0.31301 -0.823 -2.3 1.6571 1.56003 2.05244 -0.456276 -2.2603 21.606 7.4023 -6.05378 0.263182 3.76683 -13.5187 -1.1334 -5.0155 -93.3763 -74.5928 -63.7873 0.0994 -28.0499 -0.2431 -4.76747 -56.4365 -17.8221 -0.0679 -23.3996 -0.1402 -2.68427 -6.50679 -38.7774 -0.7932 -9.0691 2.5189 -26.3168 9.86706 9.08446 0.8272 -3.3923 0.5977 39.4242 12.0338 -4.97716 0.565 -2.3158 0.4082 38.7304 11.8651 -4.82258 -0.916 -9.2044 0.2193 -2.2335 10.2523 5.03867 -0.0117 -4.1944 -0.0248 52.3753 15.6205 -6.40188 -0.0071 -2.3249 -0.0142 44.0892 13.716 -4.4863 -0.6113 -8.7231 -2.0637 15.0073 7.58704 -5.70553 0.1927 -3.8059 -0.2383 37.2884 13.8497 -2.53192 0.1091 -2.1688 -0.1362 38.5715 14.2636 -2.77362 0.6151 -8.0947 -3.564 23.054 4.37552 -8.90251 0.4882 -2.341 -0.6462 30.7535 11.5468 -0.514419 0.3574 -1.7166 -0.4742 30.6849 11.5224 -0.506181 1.4199 -1.8761 1.4221 7.91159 0.880263 52.6244 1.1472 -3.4929 2.6336 -0.671186 1.52915 0.489054 0.8229 -2.3 1.6571 -4.02432 8.62949 3.04554 -9.412 3.9771 -0.7758 -57.7883 -31.5164 -47.5531 -0.7531 -40.938 5.32907e-015 65.9816 73.939 -59.0883 0 -40.1986 0 24.2015 -27.5021 19.3458 -7.10543e-015 -4.4182 9.239 -1.33736 -9.55379 0.436985 9.4119 3.9773 -0.7758 60.7227 -69.2399 58.0679 0.7532 -40.9383 0 -176.722 87.1091 174.726 -7.10543e-015 -40.1986 -3.55271e-015 -3.70169 -27.6421 -16.1768 0 -4.4182 9.239 1.11996 -8.31472 0.0814228 
-73.6647 -27.5622 -10.6513 0 0 -0 0 78.7191 0 -13.9685 -3.2448 106.8 0 8.7983 -4.7612 2.34347 -3.40683 -2.1478 0 8.0291 0.4195 4.56958 -6.89652 -4.16536 0 9.9351 -2.2114 4.56959 -6.89655 -4.16534 -3.55271e-015 22.3885 -0.4656 0.211455 8.59159 0.348821 -0.0001 12.643 3.4389 -3.12082 -4.22714 4.53659 2.2603 21.606 7.4023 24.1032 -2.22553 -35.836 13.5163 -1.1332 -5.0146 33.4426 -68.6491 16.0286 -0.0995 -28.05 -0.2431 -0.28541 -20.4183 13.9404 0.0679 -23.3996 -0.1402 25.8785 6.64291 70.4074 0.7932 -9.069 2.5189 -3.99379 8.53089 -3.16066 -0.8272 -3.3923 0.5977 -1.10404 0.687443 -0.0526467 -0.5649 -2.3158 0.4082 -2.7277 1.70008 -0.105983 0.9159 -9.2044 0.2193 -1.2406 1.77679 -2.70761 0.0117 -4.1944 -0.0248 -4.19428 2.64012 -0.316927 0.0071 -2.3249 -0.0142 -0.864727 0.541567 -0.0810807 0.6113 -8.7231 -2.0637 -0.31668 -0.190448 0.413478 -0.1927 -3.8059 -0.2383 -3.85199 2.66773 -0.421656 -0.1091 -2.1688 -0.1362 -0.611422 0.420635 -0.0787745 -0.6151 -8.0947 -3.5641 -0.214981 0.264629 0.193616 -0.4882 -2.341 -0.6462 -2.16358 1.47087 -0.331726 -0.3575 -1.7167 -0.4742 -0.78966 0.526736 -0.10258 -1.42 -1.8761 1.4223 2.65167 6.84194 -1.79065 -1.1471 -3.4929 2.6334 -2.40497 -0.273218 0.319693 -0.823 -2.3 1.6571 1.97981 2.59845 -0.587648 -2.2603 21.606 7.4023 -6.56549 0.214729 5.14876 -13.5187 -1.1334 -5.0155 -93.6767 -74.0453 -64.1588 0.0994 -28.0499 -0.2431 -5.92886 -57.9761 -20.2788 -0.0679 -23.3996 -0.1402 -1.11372 -5.04108 -36.2926 -0.7932 -9.0691 2.5189 -26.3168 9.86703 9.08447 0.8272 -3.3923 0.5977 39.4242 12.0339 -4.97714 0.565 -2.3158 0.4082 38.7303 11.8651 -4.82256 -0.916 -9.2044 0.2193 -2.2335 10.2523 5.03868 -0.0117 -4.1944 -0.0248 52.3753 15.6205 -6.40185 -0.0071 -2.3249 -0.0142 44.0892 13.716 -4.48629 -0.6113 -8.7231 -2.0637 15.0073 7.58706 -5.70547 0.1927 -3.8059 -0.2383 37.2883 13.8496 -2.5319 0.1091 -2.1688 -0.1362 38.5715 14.2637 -2.77364 0.6151 -8.0947 -3.564 23.054 4.37553 -8.90244 0.4882 -2.341 -0.6462 30.7535 11.5467 -0.514405 0.3574 -1.7166 -0.4742 30.6849 11.5224 -0.506208 1.4199 -1.8761 1.4221 7.91152 0.880336 52.6245 1.1472 -3.4929 2.6336 -0.671208 1.52912 0.489063 0.8229 -2.3 1.6571 -4.02432 8.62943 3.04555 -9.412 3.9771 -0.7758 -64.6512 -31.8742 -46.9281 -0.7531 -40.938 3.55271e-015 58.9281 73.2363 -52.0681 0 -40.1986 0 25.9343 -24.7592 18.7105 7.10543e-015 -4.4182 9.239 -1.345 -9.60923 0.438835 9.4119 3.9773 -0.7758 48.4432 -68.8617 53.7579 0.7532 -40.9383 -3.55271e-015 -175.742 88.0962 173.868 0 -40.1986 0 -1.00225 -29.172 -14.0945 0 -4.4182 9.239 1.06809 -7.93472 0.0740181 
-74.0574 -26.4433 -13.9301 0 0 -0 0 78.7191 0 -15.9953 2.11023 105.003 0 8.7983 -4.7612 1.70034 -3.57652 -1.834 0 8.0291 0.4195 3.29468 -7.20427 -3.57125 0 9.9351 -2.2114 3.29468 -7.20428 -3.57126 0 22.3885 -0.4656 0.302331 8.49117 2.38746 -0.0001 12.643 3.4389 -7.11445 -4.31876 4.31106 2.2603 21.606 7.4023 24.3128 -2.16219 -35.0553 13.5163 -1.1332 -5.0146 24.2107 -67.1319 7.9464 -0.0995 -28.05 -0.2431 0.106142 -21.9742 11.8249 0.0679 -23.3996 -0.1402 15.5398 6.33584 73.3784 0.7932 -9.069 2.5189 -4.84436 9.85498 -3.42651 -0.8272 -3.3923 0.5977 -1.85262 1.15418 -0.0809039 -0.5649 -2.3158 0.4082 -3.6456 2.27318 -0.123376 0.9159 -9.2044 0.2193 -2.07086 2.35549 -2.92032 0.0117 -4.1944 -0.0248 -5.19031 3.27453 -0.36774 0.0071 -2.3249 -0.0142 -1.67469 1.05034 -0.149672 0.6113 -8.7231 -2.0637 -1.07372 0.307995 0.345032 -0.1927 -3.8059 -0.2383 -4.80389 3.33207 -0.498376 -0.1091 -2.1688 -0.1362 -1.38397 0.953885 -0.171897 -0.6151 -8.0947 -3.5641 -1.32606 0.32487 0.392857 -0.4882 -2.341 -0.6462 -3.0223 2.05934 -0.448269 -0.3575 -1.7167 -0.4742 -1.56736 1.06416 -0.245746 -1.42 -1.8761 1.4223 3.22624 7.75091 -2.03384 -1.1471 -3.4929 2.6334 -2.52552 -0.240585 0.324881 -0.823 -2.3 1.6571 2.34657 3.07315 -0.705378 -2.2603 21.606 7.4023 -6.64529 0.168116 6.56997 -13.5187 -1.1334 -5.0155 -91.5798 -74.0927 -62.5643 0.0994 -28.0499 -0.2431 -6.0279 -59.9348 -22.0664 -0.0679 -23.3996 -0.1402 0.273157 -3.58079 -32.9937 -0.7932 -9.0691 2.5189 -26.3168 9.86699 9.08457 0.8272 -3.3923 0.5977 39.4242 12.0339 -4.97709 0.565 -2.3158 0.4082 38.7303 11.8651 -4.82253 -0.916 -9.2044 0.2193 -2.23349 10.2523 5.0387 -0.0117 -4.1944 -0.0248 52.3753 15.6206 -6.40179 -0.0071 -2.3249 -0.0142 44.0892 13.716 -4.48626 -0.6113 -8.7231 -2.0637 15.0073 7.58702 -5.7056 0.1927 -3.8059 -0.2383 37.2884 13.8496 -2.53189 0.1091 -2.1688 -0.1362 38.5715 14.2637 -2.77361 0.6151 -8.0947 -3.564 23.054 4.37548 -8.90258 0.4882 -2.341 -0.6462 30.7535 11.5467 -0.514336 0.3574 -1.7166 -0.4742 30.6849 11.5224 -0.506211 1.4199 -1.8761 1.4221 7.91155 0.880304 52.6243 1.1472 -3.4929 2.6336 -0.671209 1.52903 0.489067 0.8229 -2.3 1.6571 -4.0243 8.62951 3.04555 -9.412 3.9771 -0.7758 -70.2804 -32.8724 -45.332 -0.7531 -40.938 1.06581e-014 48.076 71.3352 -41.2404 0 -40.1986 7.10543e-015 27.6177 -21.9535 17.2342 0 -4.4182 9.239 -1.3869 -9.91372 0.449239 9.4119 3.9773 -0.7758 36.3924 -67.1604 50.0994 0.7532 -40.9383 3.55271e-015 -13.3074 89.3663 11.5723 0 -40.1986 0 1.54258 -30.196 -12.4735 7.10543e-015 -4.4182 9.239 1.08183 -8.0355 0.0759252 
